<?xml version="1.0" encoding="UTF-8" standalone="no"?>
<svg width="139px" height="142px" viewBox="0 0 139 142" version="1.1" xmlns="http://www.w3.org/2000/svg" xmlns:xlink="http://www.w3.org/1999/xlink">
    <!-- Generator: Sketch 50.2 (55047) - http://www.bohemiancoding.com/sketch -->
    <title>quienes_somos_perfil_corporativo_mision</title>
    <desc>Created with Sketch.</desc>
    <defs>
        <polygon id="path-1" points="0.000267307692 0.0701807692 138.935846 0.0701807692 138.935846 141.999181 0.000267307692 141.999181"></polygon>
    </defs>
    <g id="Page-1" stroke="none" stroke-width="1" fill="none" fill-rule="evenodd">
        <g id="QUIENES-SOMOS" transform="translate(-476.000000, -784.000000)">
            <g id="quienes_somos_perfil_corporativo_mision" transform="translate(476.000000, 784.000000)">
                <g id="Group-3">
                    <mask id="mask-2" fill="white">
                        <use xlink:href="#path-1"></use>
                    </mask>
                    <g id="Clip-2"></g>
                    <path d="M61.3834692,136.536277 L75.2112962,136.537642 L76.5652096,119.946854 L78.5606615,119.559085 C84.2997577,118.443565 89.7261038,116.304008 94.6886712,113.199123 L96.3366231,112.168258 L109.088537,123.192373 L118.869325,113.203219 L108.346758,100.499681 L109.489498,98.7847577 C112.762681,93.8666423 115.116325,88.4310462 116.48494,82.6308923 L116.93669,80.7125269 L133.58595,79.2966231 L133.588623,65.1662577 L117.349681,63.7858538 L116.970104,61.7473346 C115.876815,55.8857385 113.78246,50.3409115 110.741835,45.2671423 L109.732748,43.5822577 L120.525296,30.5578538 L110.747181,20.5687 L98.3106904,31.3170077 L96.6319981,30.1496038 C91.8231327,26.8071423 86.5037096,24.4027 80.8207481,23.0072769 L78.9429115,22.5457769 L77.5529115,5.53171923 L63.7250846,5.53171923 L62.3711712,22.1197769 L60.3770558,22.5075462 C54.6392962,23.6244308 49.21295,25.7639885 44.2450365,28.8675077 L42.5984212,29.8970077 L29.8478442,18.8728923 L20.0657192,28.8634115 L30.5882865,41.5683154 L29.4468827,43.2846038 C26.1723635,48.2027192 23.8187192,53.63695 22.4527769,59.4357385 L22.0010269,61.3541038 L5.34909423,62.7727385 L5.34775769,76.8990077 L21.5853635,78.2821423 L21.9662769,80.3206615 C23.0622385,86.1945462 25.1579308,91.7380077 28.1918731,96.7981231 L29.2022962,98.4816423 L18.4110846,111.510142 L28.1905365,121.500662 L40.6243538,110.750988 L42.3030462,111.917027 C47.1226038,115.26495 52.4420269,117.669392 58.1142962,119.06345 L59.9907962,119.523585 L61.3834692,136.536277 Z M80.1310942,141.999181 L56.4650077,141.997815 L54.9827865,123.8737 C50.0402673,122.465988 45.3530269,120.353738 41.0066038,117.573815 L27.8884788,128.916065 L11.1523442,111.817354 L22.6479115,97.9395846 C20.1352192,93.3860269 18.28545,88.5061423 17.1346904,83.3832192 L0.000267307692,81.9249885 L0.00427692308,57.7467577 L17.7441519,56.2366423 C19.1234596,51.1847192 21.1910846,46.3963154 23.9096038,41.9601808 L12.8056423,28.5548346 L29.5484596,11.4588538 L43.1317,23.2038923 C47.597075,20.6342385 52.3725269,18.7459115 57.3778635,17.5716808 L58.8066231,0.0701807692 L82.4727096,0.0701807692 L83.9522577,18.1956615 C88.9027962,19.6061038 93.5900365,21.7169885 97.9297769,24.4928154 L111.049238,13.1532962 L127.785373,30.2492769 L116.287133,44.1270462 C118.802498,48.6901615 120.652267,53.5700462 121.803027,58.6834115 L138.936113,60.1402769 L138.930767,84.3212385 L121.193565,85.8299885 C119.812921,90.8832769 117.74396,95.6716808 115.02544,100.107815 L126.128065,113.510431 L109.389258,130.607777 L95.8046808,118.862738 C91.3419788,121.432392 86.5651904,123.322085 81.5585173,124.496315 L80.1310942,141.999181 Z" id="Fill-1" fill="#282D33" mask="url(#mask-2)"></path>
                </g>
                <path d="M94.8621538,70.98225 C94.8621538,85.3010385 83.4989038,96.9081731 69.4839615,96.9081731 C55.4676827,96.9081731 44.1057692,85.3010385 44.1057692,70.98225 C44.1057692,56.6648269 55.4676827,45.0576923 69.4839615,45.0576923 C83.4989038,45.0576923 94.8621538,56.6648269 94.8621538,70.98225" id="Fill-4" fill="#00B3F0"></path>
                <path d="M70.2578173,105.910154 C51.4152981,105.910154 36.0865385,90.2491923 36.0865385,71 L41.4326923,71 C41.4326923,87.2385192 54.3637019,100.448615 70.2578173,100.448615 C86.1519327,100.448615 99.0829423,87.2385192 99.0829423,71 L104.429096,71 C104.429096,90.2491923 89.1003365,105.910154 70.2578173,105.910154" id="Fill-6" fill="#282D33"></path>
                <path d="M41.4326923,71.2280192 L36.0865385,71.2280192 C36.0865385,70.2408462 36.1279712,69.2454808 36.2081635,68.2692308 L41.5356058,68.728 C41.4674423,69.5526923 41.4326923,70.3951346 41.4326923,71.2280192" id="Fill-8" fill="#282D33"></path>
                <path d="M77.8988077,41.8285577 C76.2842692,41.3875385 74.6189423,41.0885192 72.9482692,40.9424231 L73.4080385,35.5 C75.390125,35.6747692 77.3655288,36.0284038 79.2807885,36.5527115 L77.8988077,41.8285577 Z M62.9656635,41.8381154 L61.577,36.565 C63.4935962,36.0379615 65.4703365,35.6815962 67.44975,35.5054615 L67.9148654,40.9451538 C66.2455288,41.0939808 64.5815385,41.3957308 62.9656635,41.8381154 Z M86.9725673,46.1609231 C85.5986058,45.1764808 84.1350962,44.3094615 82.6207981,43.5858077 L84.8848942,38.6390192 C86.6812019,39.4964808 88.4173654,40.5246154 90.0439327,41.6920192 L86.9725673,46.1609231 Z M53.8985865,46.1841346 L50.8205385,41.7193269 C52.4444327,40.5505577 54.1779231,39.5224231 55.9742308,38.6595 L58.2476827,43.6021923 C56.7320481,44.3299423 55.2685385,45.1983269 53.8985865,46.1841346 Z M94.0629038,53.4070192 C93.1005962,52.0075 92.0113173,50.6817115 90.8244712,49.4706154 L94.6055385,45.6093077 C96.0102404,47.0429615 97.3,48.6117885 98.4387308,50.2707308 L94.0629038,53.4070192 Z M46.8189423,53.4397885 L42.4377692,50.3089615 C43.5738269,48.6500192 44.86225,47.0798269 46.2642788,45.6420769 L50.0506923,49.4992885 C48.8651827,50.7131154 47.7772404,52.0402692 46.8189423,53.4397885 Z M98.3037404,62.6779808 C97.8720385,61.0272308 97.2933173,59.4051538 96.5836154,57.8540769 L101.425894,55.53975 C102.267913,57.3816538 102.956231,59.3068462 103.468125,61.2648077 L98.3037404,62.6779808 Z M42.5901346,62.7175769 L37.4230769,61.3139615 C37.9336346,59.3519038 38.6179423,57.4239808 39.458625,55.5834423 L44.3035769,57.8909423 C43.5965481,59.4406538 43.0191635,61.0654615 42.5901346,62.7175769 Z" id="Fill-10" fill="#282D33"></path>
                <path d="M104.352913,71.2280192 L99.0067596,71.2280192 C99.0067596,70.3951346 98.9720096,69.5526923 98.9038462,68.728 L104.231288,68.2692308 C104.311481,69.2454808 104.352913,70.2408462 104.352913,71.2280192" id="Fill-12" fill="#282D33"></path>
                <polygon id="Fill-14" fill="#FFFFFF" points="65.4903846 86.5926923 75.0559904 86.5926923 75.0559904 55.9807692 65.4903846 55.9807692"></polygon>
                <polygon id="Fill-16" fill="#FFFFFF" points="54.7980769 75.3105192 84.7632692 75.3105192 84.7632692 65.5384615 54.7980769 65.5384615"></polygon>
            </g>
        </g>
    </g>
</svg>