<?xml version="1.0" encoding="utf-8"?>
<!-- Generator: Adobe Illustrator 22.0.1, SVG Export Plug-In . SVG Version: 6.00 Build 0)  -->
<svg version="1.1" id="Capa_1" xmlns="http://www.w3.org/2000/svg" xmlns:xlink="http://www.w3.org/1999/xlink" x="0px" y="0px"
	 viewBox="0 0 139 142" style="enable-background:new 0 0 139 142;" xml:space="preserve">
<style type="text/css">
	.st0{fill:#282D33;}
	.st1{fill:#00B3F0;}
	.st2{filter:url(#Adobe_OpacityMaskFilter);}
	.st3{fill:#FFFFFF;}
	.st4{mask:url(#mask-2_2_);fill:#282D33;}
</style>
<g id="Page-1">
	<g id="QUIENES-SOMOS" transform="translate(-1311.000000, -790.000000)">
		<g id="quienes_somos_perfil_corporativo_valores" transform="translate(1311.000000, 790.000000)">
			<g id="Group" transform="translate(8.040000, 0.000000)">
				<path id="Fill-1" class="st0" d="M66.1,131.2L14.6,78.5c-0.9-0.9-1.7-1.8-2.5-2.8l4.2-3.4c0.7,0.8,1.4,1.6,2.1,2.4l47.8,48.8
					l47.8-48.8c5.6-5.7,8.7-13.3,8.7-21.4s-3.1-15.7-8.7-21.4l-0.5-0.5c-5.6-5.7-13-8.9-21-8.9s-15.4,3.2-21,8.9l-5.4,5.5l-5.4-5.5
					c-11.6-11.8-30.4-11.8-41.9,0l-0.5,0.5c-5.6,5.7-8.7,13.3-8.7,21.4H4.3C4.3,43.7,8,34.7,14.6,28l0.5-0.5c13.7-14,35.9-14,49.5,0
					l1.6,1.6l1.6-1.6C74.3,20.7,83.1,17,92.5,17c9.4,0,18.1,3.7,24.8,10.5l0.5,0.5c6.6,6.7,10.2,15.7,10.2,25.3s-3.6,18.5-10.3,25.3
					L66.1,131.2z"/>
				<path id="Fill-3" class="st1" d="M22.5,70.5c-9.3-9.5-9.3-24.9,0-34.4l0.5-0.5c4.5-4.6,10.5-7.1,16.9-7.1
					c6.4,0,12.4,2.5,16.9,7.1l9.5,9.7l9.5-9.7c4.5-4.6,10.5-7.1,16.9-7.1c6.4,0,12.4,2.5,16.9,7.1l0.4,0.5c4.5,4.6,7,10.8,7,17.3
					c0,6.5-2.5,12.6-7,17.2l-43.7,44.6L22.5,70.5z"/>
			</g>
			<g id="Group-7" transform="translate(0.000000, 19.771649)">
				<defs>
					<filter id="Adobe_OpacityMaskFilter" filterUnits="userSpaceOnUse" x="3" y="17.4" width="93.5" height="45">
						<feColorMatrix  type="matrix" values="1 0 0 0 0  0 1 0 0 0  0 0 1 0 0  0 0 0 1 0"/>
					</filter>
				</defs>
				<mask maskUnits="userSpaceOnUse" x="3" y="17.4" width="93.5" height="45" id="mask-2_2_">
					<g class="st2">
						<polygon id="path-1_2_" class="st3" points="3,17.4 96.5,17.4 96.5,62.4 3,62.4 						"/>
					</g>
				</mask>
				<polygon id="Fill-5" class="st4" points="54,62.4 45.3,33.1 39.5,46.5 3,46.5 3,41 36,41 46.2,17.4 55.4,48.2 60.1,39.4 
					96.5,39.4 96.5,44.9 63.3,44.9 				"/>
			</g>
		</g>
	</g>
</g>
</svg>
